$MeshFormat
2 0 8
$EndMeshFormat
$Nodes
450
1 -156.511024 20.973041 51.584818
2 -156.507029 20.984064 87.805463
3 -156.486139 20.985220 114.333457
4 -156.497972 20.983014 97.927037
5 -156.490197 20.983425 108.028945
6 -156.494171 20.981087 100.337468
7 -156.498680 20.979229 91.763243
8 -156.502563 20.982475 91.192643
9 -156.502859 20.977701 83.830323
10 -156.507013 20.975481 74.640924
11 -156.506993 20.979827 81.344403
12 -156.511408 20.977369 60.772152
13 -156.511423 20.981707 69.880911
14 -156.515582 20.984804 61.814831
15 -156.515492 20.979755 47.745129
16 -156.441489 20.962068 92.268948
17 -156.437402 20.960533 90.676755
18 -156.438400 20.966314 97.567316
19 -156.436895 20.955893 83.984539
20 -156.461406 20.949757 66.620650
21 -156.461403 20.954409 76.391475
22 -156.459335 20.966231 95.001992
23 -156.462217 20.958833 85.205128
24 -156.463109 20.963252 91.131143
25 -156.457754 20.957038 82.403514
26 -156.445546 20.959898 89.129512
27 -156.448736 20.948392 68.254515
28 -156.464894 20.951869 70.637515
29 -156.466838 20.960200 86.674751
30 -156.461545 20.945507 57.678275
31 -156.443691 20.971047 102.314090
32 -156.465871 20.955936 79.061628
33 -156.444781 20.965297 95.533541
34 -156.457156 20.947838 63.483209
35 -156.457353 20.952375 72.810473
36 -156.458511 20.961645 89.164177
37 -156.471478 20.961192 87.836139
38 -156.449776 20.967683 97.744466
39 -156.453103 20.950384 70.294749
40 -156.470360 20.956810 80.357773
41 -156.454534 20.964527 93.318695
42 -156.449686 20.962370 91.391893
43 -156.453906 20.959637 87.397928
44 -156.453476 20.954970 79.222458
45 -156.449560 20.957470 84.957884
46 -156.469001 20.952315 71.080382
47 -156.466423 20.947769 61.845169
48 -156.465482 20.943027 51.998501
49 -156.432493 20.954023 81.043885
50 -156.441238 20.957629 86.818376
51 -156.449169 20.952906 76.506248
52 -156.445234 20.955334 82.049930
53 -156.444786 20.950869 74.311221
54 -156.440827 20.953301 79.575961
55 -156.474740 20.973311 107.210753
56 -156.469894 20.978780 115.347436
57 -156.449103 20.981577 120.893937
58 -156.465093 20.972070 103.502260
59 -156.468881 20.983857 124.353771
60 -156.464063 20.967671 97.233156
61 -156.468820 20.969034 99.647601
62 -156.473434 20.969688 101.198855
63 -156.463424 20.983792 125.172630
64 -156.474015 20.977204 113.171177
65 -156.452506 20.977509 111.911822
66 -156.446180 20.977063 111.162122
67 -156.466083 20.980562 118.524774
68 -156.443453 20.983792 125.525715
69 -156.473464 20.981747 120.236543
70 -156.467810 20.964560 92.983325
71 -156.478659 20.975233 107.262967
72 -156.454162 20.982522 123.061862
73 -156.465774 20.976342 110.377664
74 -156.458790 20.983208 124.647727
75 -156.461896 20.979491 116.346501
76 -156.472490 20.965495 94.514461
77 -156.457483 20.978562 114.140698
78 -156.461103 20.975094 106.866949
79 -156.460243 20.970702 100.865071
80 -156.477631 20.984225 121.277556
81 -156.477962 20.979758 114.445690
82 -156.481988 20.982364 114.435235
83 -156.456312 20.973914 104.769131
84 -156.450567 20.972703 103.699898
85 -156.455296 20.969335 99.168629
86 -156.498695 20.970485 76.638090
87 -156.502628 20.968839 67.171343
88 -156.487223 20.972267 94.703772
89 -156.494715 20.967743 77.278414
90 -156.503311 20.953068 30.314946
91 -156.490804 20.974493 95.758394
92 -156.490837 20.969887 86.957154
93 -156.477299 20.966441 93.849297
94 -156.497955 20.954331 43.239183
95 -156.498831 20.965942 67.125052
96 -156.490463 20.965360 78.711401
97 -156.486354 20.968395 88.413168
98 -156.482088 20.967554 91.033584
99 -156.506977 20.971140 65.478445
100 -156.478433 20.970654 99.807453
101 -156.482819 20.972531 99.084409
102 -156.503212 20.964465 56.957764
103 -156.502846 20.973180 76.040179
104 -156.514279 20.970758 22.292376
105 -156.508085 20.963848 47.649408
106 -156.486027 20.963940 80.624589
107 -156.494812 20.963162 68.071854
108 -156.495995 20.958873 57.547042
109 -156.499665 20.961594 56.812725
110 -156.494760 20.972362 86.333521
111 -156.481109 20.963180 84.419451
112 -156.482308 20.977679 107.597257
113 -156.486357 20.976203 102.068085
114 -156.486164 20.980689 108.241253
115 -156.490286 20.978827 102.057674
116 -156.501188 20.957356 44.979598
117 -156.494633 20.976836 94.139314
118 -156.498787 20.974935 85.612921
119 -156.504639 20.960497 46.086144
120 -156.506289 20.956441 33.630829
121 -156.509574 20.959959 25.470584
122 -156.490398 20.952880 52.785694
123 -156.494594 20.950962 41.268551
124 -156.496945 20.947340 28.046491
125 -156.489587 20.948910 44.602199
126 -156.484770 20.947785 48.225823
127 -156.479987 20.946713 52.076190
128 -156.494926 20.938055 12.000698
129 -156.483439 20.943406 40.217237
130 -156.475146 20.945644 56.160129
131 -156.478261 20.954479 71.007898
132 -156.482157 20.939000 34.488952
133 -156.492848 20.946051 32.942130
134 -156.481377 20.951108 59.892268
135 -156.500217 20.950248 28.957852
136 -156.486007 20.952137 56.458542
137 -156.483058 20.955568 67.686351
138 -156.487989 20.956520 64.045193
139 -156.488197 20.944551 36.393419
140 -156.491763 20.941452 24.479724
141 -156.500997 20.946096 17.074871
142 -156.493062 20.955945 55.922073
143 -156.476608 20.950006 63.485471
144 -156.484903 20.959868 74.470667
145 -156.479832 20.958896 78.452699
146 -156.476231 20.962180 87.913057
147 -156.475003 20.957834 81.946557
148 -156.473554 20.953361 72.731549
149 -156.471677 20.948862 63.508857
150 -156.478675 20.942349 44.397676
151 -156.470208 20.944547 54.624271
152 -156.473893 20.941322 47.700311
153 -156.486924 20.940152 29.377491
154 -156.490253 20.936894 19.890190
155 -156.496604 20.942933 18.002937
156 -156.501567 20.942036 5.732775
157 -156.493758 20.933728 7.509462
158 -156.498733 20.939180 5.464389
159 -156.499251 20.934789 2.000000
160 -156.480854 20.923192 15.833143
161 -156.470539 20.928724 32.435054
162 -156.477578 20.920154 18.884925
163 -156.467139 20.926125 29.800770
164 -156.467215 20.931051 35.855549
165 -156.485583 20.923566 8.277462
166 -156.463226 20.924260 28.712102
167 -156.468176 20.935567 41.282902
168 -156.471723 20.924778 27.440506
169 -156.474705 20.929020 32.114347
170 -156.487399 20.927712 10.815269
171 -156.464570 20.938395 45.252663
172 -156.473014 20.920850 24.488152
173 -156.487702 20.919730 0.218498
174 -156.463723 20.933772 39.726979
175 -156.471713 20.932699 37.201694
176 -156.463272 20.929002 33.984145
177 -156.469176 20.940049 46.695031
178 -156.472804 20.936966 42.377234
179 -156.459456 20.931831 38.022483
180 -156.459086 20.927273 32.598587
181 -156.482604 20.919633 9.347689
182 -156.482248 20.926990 17.973354
183 -156.477452 20.937969 39.826139
184 -156.476199 20.933537 35.962208
185 -156.479199 20.929965 26.753459
186 -156.480812 20.934516 30.371045
187 -156.484105 20.931200 20.873571
188 -156.485534 20.935676 25.005856
189 -156.488898 20.932347 15.212948
190 -156.492021 20.928964 4.867497
191 -156.496846 20.930894 2.000000
192 -156.495538 20.926566 2.000000
193 -156.494807 20.922122 2.000000
194 -156.492553 20.918149 2.000000
195 -156.467706 20.912811 20.816789
196 -156.462450 20.919834 26.472817
197 -156.457604 20.918720 27.142939
198 -156.463440 20.911335 21.516886
199 -156.473706 20.907767 14.923760
200 -156.467593 20.921219 26.014454
201 -156.470046 20.916930 22.656936
202 -156.471945 20.912185 18.886688
203 -156.458797 20.922983 28.935006
204 -156.460579 20.915294 24.622635
205 -156.474661 20.916250 20.803255
206 -156.455392 20.914986 25.155159
207 -156.452820 20.911269 22.083722
208 -156.479346 20.915894 11.979592
209 -156.458080 20.911432 23.429123
210 -156.476428 20.904067 7.156847
211 -156.455223 20.907636 19.807535
212 -156.463984 20.906901 17.909242
213 -156.479125 20.907646 5.068579
214 -156.481319 20.911731 4.191554
215 -156.484061 20.915927 2.829016
216 -156.459773 20.907539 20.407335
217 -156.488555 20.915644 2.000000
218 -156.485613 20.912085 2.000000
219 -156.484322 20.907753 2.000000
220 -156.482351 20.903651 2.000000
221 -156.478709 20.900710 2.000000
222 -156.473997 20.899796 6.108253
223 -156.471057 20.903356 11.069041
224 -156.466245 20.903458 12.950309
225 -156.461432 20.903397 14.644399
226 -156.456624 20.903601 15.290334
227 -156.451842 20.904121 13.867527
228 -156.442673 20.917037 27.941981
229 -156.454513 20.921809 30.014140
230 -156.437716 20.918519 27.196954
231 -156.445164 20.921687 33.640785
232 -156.452403 20.918510 28.087507
233 -156.447777 20.918486 28.998831
234 -156.450366 20.914530 24.649871
235 -156.429265 20.931507 42.493116
236 -156.424430 20.929356 36.170881
237 -156.433254 20.929258 40.481862
238 -156.446162 20.926074 38.591430
239 -156.419516 20.918376 17.199641
240 -156.419768 20.922789 24.145557
241 -156.440975 20.920902 33.313548
242 -156.449988 20.922975 33.000706
243 -156.423862 20.924743 26.746356
244 -156.446088 20.914454 24.381772
245 -156.428524 20.927047 33.658462
246 -156.441547 20.924810 39.621857
247 -156.437388 20.927079 39.638209
248 -156.437033 20.922920 33.265601
249 -156.432747 20.924952 32.970763
250 -156.428249 20.922554 25.864696
251 -156.433062 20.920681 26.809065
252 -156.450768 20.907682 17.984333
253 -156.442579 20.911908 20.546233
254 -156.434116 20.916441 21.271908
255 -156.447312 20.910222 19.551424
256 -156.438614 20.914179 21.387445
257 -156.429179 20.918355 20.293080
258 -156.447203 20.905318 13.405131
259 -156.442814 20.907166 13.945847
260 -156.438594 20.909329 14.096791
261 -156.434670 20.911933 14.941935
262 -156.430730 20.914516 15.743172
263 -156.425959 20.915119 12.927406
264 -156.421212 20.914377 10.941227
265 -156.455601 20.934462 42.994422
266 -156.456231 20.938990 48.049681
267 -156.452281 20.941457 53.379592
268 -156.460819 20.941010 48.907917
269 -156.447752 20.939485 53.730751
270 -156.443778 20.941979 59.274013
271 -156.444301 20.946416 66.713137
272 -156.448271 20.943929 60.215099
273 -156.439835 20.944473 64.896652
274 -156.435373 20.942550 62.198626
275 -156.443214 20.937556 54.138300
276 -156.456858 20.943461 54.586830
277 -156.452737 20.945892 61.635489
278 -156.460053 20.936451 43.502065
279 -156.425671 20.934050 46.199632
280 -156.440351 20.948902 72.244221
281 -156.436414 20.951454 76.702912
282 -156.435916 20.947013 69.450522
283 -156.432006 20.949602 73.938187
284 -156.431506 20.945136 66.794274
285 -156.426589 20.938741 55.915739
286 -156.430943 20.940629 59.440691
287 -156.430193 20.936063 51.179745
288 -156.439260 20.940035 58.118752
289 -156.434726 20.938070 55.168383
290 -156.433977 20.933616 47.919578
291 -156.454530 20.925638 33.047047
292 -156.455054 20.929956 37.915212
293 -156.450554 20.927825 38.058133
294 -156.451703 20.936972 48.344526
295 -156.451124 20.932435 43.248060
296 -156.447190 20.935027 48.718706
297 -156.446653 20.930562 43.683077
298 -156.438627 20.935621 52.118150
299 -156.442638 20.933176 49.228551
300 -156.437985 20.931288 45.924271
301 -156.442107 20.928890 44.403939
302 -156.409933 20.936700 50.205144
303 -156.406692 20.934139 45.419227
304 -156.394029 20.942387 65.397381
305 -156.393989 20.933303 43.062759
306 -156.393687 20.937943 54.820324
307 -156.397495 20.935822 49.187866
308 -156.418439 20.935743 49.079165
309 -156.421100 20.932296 42.277348
310 -156.416236 20.932322 42.273333
311 -156.411739 20.933005 43.490123
312 -156.398944 20.932130 40.700675
313 -156.400215 20.927953 31.626702
314 -156.398137 20.939702 58.123638
315 -156.402036 20.936116 49.513232
316 -156.413764 20.928747 35.459997
317 -156.402158 20.941165 60.163766
318 -156.405973 20.938677 54.111941
319 -156.403557 20.931284 39.531390
320 -156.408577 20.929927 37.861202
321 -156.410141 20.925738 30.136389
322 -156.395288 20.929093 32.796750
323 -156.415182 20.924524 27.397053
324 -156.405116 20.926959 31.300439
325 -156.392349 20.925789 23.384780
326 -156.401663 20.923759 23.608726
327 -156.411268 20.921460 22.637158
328 -156.415606 20.919879 19.753315
329 -156.396872 20.924707 22.976543
330 -156.406481 20.922752 24.184229
331 -156.416431 20.914904 11.638103
332 -156.412070 20.916808 14.738074
333 -156.407633 20.918552 17.427143
334 -156.402944 20.919570 16.859564
335 -156.398231 20.920484 16.128795
336 -156.393479 20.921205 15.062985
337 -156.399182 20.957902 90.104427
338 -156.394224 20.946947 73.219013
339 -156.415860 20.955583 82.980542
340 -156.398241 20.944183 66.952468
341 -156.422809 20.941510 61.281963
342 -156.403669 20.959280 90.252489
343 -156.402429 20.945836 68.218719
344 -156.418915 20.944172 64.922261
345 -156.422386 20.937006 51.961270
346 -156.406709 20.947607 69.599461
347 -156.428106 20.952272 78.409245
348 -156.400185 20.962809 96.085622
349 -156.398455 20.948732 74.676614
350 -156.418482 20.939807 57.139215
351 -156.398743 20.953307 82.409517
352 -156.402716 20.950381 75.837866
353 -156.403076 20.954850 83.290699
354 -156.408079 20.960320 90.072294
355 -156.411918 20.958252 87.080724
356 -156.414322 20.937193 51.543827
357 -156.406390 20.943142 62.188049
358 -156.410442 20.940595 57.410764
359 -156.414609 20.942115 60.862796
360 -156.407518 20.956244 83.825358
361 -156.410708 20.944969 64.918437
362 -156.407068 20.952000 76.862300
363 -156.411499 20.953788 79.657359
364 -156.411071 20.949385 72.307974
365 -156.415007 20.946700 68.416122
366 -156.420240 20.957481 86.355759
367 -156.424212 20.954927 82.619800
368 -156.415441 20.951166 75.751969
369 -156.419823 20.953044 79.240543
370 -156.419369 20.948600 72.082712
371 -156.423740 20.950446 75.548026
372 -156.423275 20.945977 68.466826
373 -156.427632 20.947788 71.350231
374 -156.427136 20.943293 64.305774
375 -156.395251 20.961072 95.570529
376 -156.390778 20.958976 94.887048
377 -156.394798 20.956214 89.020919
378 -156.394466 20.951555 81.098027
379 -156.390817 20.964374 100.531680
380 -156.433021 20.958381 88.062133
381 -156.433749 20.962915 93.875794
382 -156.430297 20.972445 106.975559
383 -156.416435 20.964323 96.296403
384 -156.418986 20.973265 109.463666
385 -156.428630 20.956762 85.507435
386 -156.416004 20.960031 89.959383
387 -156.414326 20.968887 102.962596
388 -156.425265 20.970018 104.770389
389 -156.436575 20.971583 104.319394
390 -156.411456 20.963597 95.023060
391 -156.439932 20.977328 112.307639
392 -156.417596 20.980541 121.457111
393 -156.431370 20.967084 99.597893
394 -156.429324 20.961544 92.373947
395 -156.420417 20.967352 100.860081
396 -156.425553 20.964606 96.969796
397 -156.424771 20.976465 114.462382
398 -156.432572 20.977596 114.584910
399 -156.426792 20.982678 124.708221
400 -156.408396 20.968864 102.796899
401 -156.412086 20.974670 111.509073
402 -156.420811 20.962033 93.131603
403 -156.424792 20.959443 89.586749
404 -156.435819 20.983531 125.412661
405 -156.405547 20.964090 96.343632
406 -156.401986 20.968245 102.720873
407 -156.394201 20.985154 128.819748
408 -156.396108 20.966552 101.569199
409 -156.391258 20.970410 106.576514
410 -156.392538 20.977488 115.380825
411 -156.397659 20.972699 108.615433
412 -156.404764 20.974085 110.507436
413 -156.400141 20.979449 119.249898
414 -156.408520 20.980533 121.624443
415 -156.504854 20.944267 4.799881
416 -156.520771 20.973747 2.000000
417 -156.512681 20.963582 6.182170
418 -156.515835 20.974950 32.150351
419 -156.523022 20.969714 2.000000
420 -156.518377 20.970485 2.000000
421 -156.515648 20.966799 2.000000
422 -156.519810 20.977741 21.340261
423 -156.519351 20.982047 38.795177
424 -156.517640 20.962781 2.000000
425 -156.508292 20.952198 18.878604
426 -156.514554 20.959580 2.000000
427 -156.523357 20.983719 29.856637
428 -156.520353 20.966344 2.000000
429 -156.523841 20.980082 12.230460
430 -156.511162 20.956121 2.000000
431 -156.522563 20.962497 2.000000
432 -156.519871 20.958768 2.000000
433 -156.516169 20.955893 2.000000
434 -156.512999 20.952508 2.000000
435 -156.511453 20.948250 2.000000
436 -156.509684 20.944068 2.000000
437 -156.506428 20.940755 2.000000
438 -156.502628 20.937994 2.000000
439 -156.419214 20.927793 33.268416
440 -156.490466 20.960547 69.570328
441 -156.468554 20.908179 17.529475
442 -156.505785 20.948405 13.678766
443 -156.470014 20.973763 106.933117
444 -156.476855 20.925088 24.107727
445 -156.490665 20.923741 0.005234
446 -156.510822 20.968007 37.193802
447 -156.424061 20.919437 18.693200
448 -156.506454 20.967282 57.834585
449 -156.476609 20.911787 14.114218
450 -156.465251 20.916417 23.779787
$EndNodes
$Elements
1230
1 15 2 0 0 1
2 15 2 0 0 2
3 15 2 0 0 3
4 15 2 0 0 4
5 15 2 0 0 5
6 15 2 0 0 6
7 15 2 0 0 7
8 15 2 0 0 8
9 15 2 0 0 9
10 15 2 0 0 10
11 15 2 0 0 11
12 15 2 0 0 12
13 15 2 0 0 13
14 15 2 0 0 14
15 15 2 0 0 15
16 15 2 0 0 16
17 15 2 0 0 17
18 15 2 0 0 18
19 15 2 0 0 19
20 15 2 0 0 20
21 15 2 0 0 21
22 15 2 0 0 22
23 15 2 0 0 23
24 15 2 0 0 24
25 15 2 0 0 25
26 15 2 0 0 26
27 15 2 0 0 28
28 15 2 0 0 29
29 15 2 0 0 31
30 15 2 0 0 32
31 15 2 0 0 33
32 15 2 0 0 35
33 15 2 0 0 36
34 15 2 0 0 37
35 15 2 0 0 38
36 15 2 0 0 39
37 15 2 0 0 40
38 15 2 0 0 41
39 15 2 0 0 42
40 15 2 0 0 43
41 15 2 0 0 44
42 15 2 0 0 45
43 15 2 0 0 46
44 15 2 0 0 49
45 15 2 0 0 50
46 15 2 0 0 51
47 15 2 0 0 52
48 15 2 0 0 53
49 15 2 0 0 54
50 15 2 0 0 55
51 15 2 0 0 56
52 15 2 0 0 57
53 15 2 0 0 58
54 15 2 0 0 59
55 15 2 0 0 60
56 15 2 0 0 61
57 15 2 0 0 62
58 15 2 0 0 63
59 15 2 0 0 64
60 15 2 0 0 65
61 15 2 0 0 66
62 15 2 0 0 67
63 15 2 0 0 68
64 15 2 0 0 69
65 15 2 0 0 70
66 15 2 0 0 71
67 15 2 0 0 72
68 15 2 0 0 73
69 15 2 0 0 74
70 15 2 0 0 75
71 15 2 0 0 76
72 15 2 0 0 77
73 15 2 0 0 78
74 15 2 0 0 79
75 15 2 0 0 80
76 15 2 0 0 81
77 15 2 0 0 82
78 15 2 0 0 83
79 15 2 0 0 84
80 15 2 0 0 85
81 15 2 0 0 86
82 15 2 0 0 87
83 15 2 0 0 88
84 15 2 0 0 89
85 15 2 0 0 90
86 15 2 0 0 91
87 15 2 0 0 92
88 15 2 0 0 93
89 15 2 0 0 94
90 15 2 0 0 95
91 15 2 0 0 96
92 15 2 0 0 97
93 15 2 0 0 98
94 15 2 0 0 99
95 15 2 0 0 100
96 15 2 0 0 101
97 15 2 0 0 102
98 15 2 0 0 103
99 15 2 0 0 104
100 15 2 0 0 105
101 15 2 0 0 106
102 15 2 0 0 107
103 15 2 0 0 108
104 15 2 0 0 109
105 15 2 0 0 110
106 15 2 0 0 111
107 15 2 0 0 112
108 15 2 0 0 113
109 15 2 0 0 114
110 15 2 0 0 115
111 15 2 0 0 116
112 15 2 0 0 117
113 15 2 0 0 118
114 15 2 0 0 119
115 15 2 0 0 120
116 15 2 0 0 121
117 15 2 0 0 122
118 15 2 0 0 123
119 15 2 0 0 124
120 15 2 0 0 125
121 15 2 0 0 128
122 15 2 0 0 131
123 15 2 0 0 133
124 15 2 0 0 134
125 15 2 0 0 135
126 15 2 0 0 136
127 15 2 0 0 137
128 15 2 0 0 138
129 15 2 0 0 139
130 15 2 0 0 140
131 15 2 0 0 141
132 15 2 0 0 142
133 15 2 0 0 143
134 15 2 0 0 144
135 15 2 0 0 145
136 15 2 0 0 146
137 15 2 0 0 147
138 15 2 0 0 148
139 15 2 0 0 153
140 15 2 0 0 154
141 15 2 0 0 155
142 15 2 0 0 156
143 15 2 0 0 157
144 15 2 0 0 158
145 15 2 0 0 159
146 15 2 0 0 160
147 15 2 0 0 161
148 15 2 0 0 162
149 15 2 0 0 163
150 15 2 0 0 164
151 15 2 0 0 165
152 15 2 0 0 166
153 15 2 0 0 167
154 15 2 0 0 168
155 15 2 0 0 169
156 15 2 0 0 170
157 15 2 0 0 172
158 15 2 0 0 173
159 15 2 0 0 174
160 15 2 0 0 175
161 15 2 0 0 176
162 15 2 0 0 179
163 15 2 0 0 180
164 15 2 0 0 181
165 15 2 0 0 182
166 15 2 0 0 184
167 15 2 0 0 185
168 15 2 0 0 186
169 15 2 0 0 187
170 15 2 0 0 188
171 15 2 0 0 189
172 15 2 0 0 190
173 15 2 0 0 191
174 15 2 0 0 192
175 15 2 0 0 193
176 15 2 0 0 194
177 15 2 0 0 195
178 15 2 0 0 196
179 15 2 0 0 197
180 15 2 0 0 198
181 15 2 0 0 199
182 15 2 0 0 200
183 15 2 0 0 201
184 15 2 0 0 202
185 15 2 0 0 203
186 15 2 0 0 204
187 15 2 0 0 205
188 15 2 0 0 206
189 15 2 0 0 207
190 15 2 0 0 208
191 15 2 0 0 209
192 15 2 0 0 210
193 15 2 0 0 211
194 15 2 0 0 212
195 15 2 0 0 213
196 15 2 0 0 214
197 15 2 0 0 215
198 15 2 0 0 216
199 15 2 0 0 217
200 15 2 0 0 218
201 15 2 0 0 219
202 15 2 0 0 220
203 15 2 0 0 221
204 15 2 0 0 222
205 15 2 0 0 223
206 15 2 0 0 224
207 15 2 0 0 225
208 15 2 0 0 226
209 15 2 0 0 227
210 15 2 0 0 228
211 15 2 0 0 229
212 15 2 0 0 230
213 15 2 0 0 231
214 15 2 0 0 232
215 15 2 0 0 233
216 15 2 0 0 234
217 15 2 0 0 235
218 15 2 0 0 236
219 15 2 0 0 237
220 15 2 0 0 238
221 15 2 0 0 239
222 15 2 0 0 240
223 15 2 0 0 241
224 15 2 0 0 242
225 15 2 0 0 243
226 15 2 0 0 244
227 15 2 0 0 245
228 15 2 0 0 246
229 15 2 0 0 247
230 15 2 0 0 248
231 15 2 0 0 249
232 15 2 0 0 250
233 15 2 0 0 251
234 15 2 0 0 252
235 15 2 0 0 253
236 15 2 0 0 254
237 15 2 0 0 255
238 15 2 0 0 256
239 15 2 0 0 257
240 15 2 0 0 258
241 15 2 0 0 259
242 15 2 0 0 260
243 15 2 0 0 261
244 15 2 0 0 262
245 15 2 0 0 263
246 15 2 0 0 264
247 15 2 0 0 265
248 15 2 0 0 279
249 15 2 0 0 281
250 15 2 0 0 283
251 15 2 0 0 285
252 15 2 0 0 290
253 15 2 0 0 291
254 15 2 0 0 292
255 15 2 0 0 293
256 15 2 0 0 295
257 15 2 0 0 296
258 15 2 0 0 297
259 15 2 0 0 298
260 15 2 0 0 299
261 15 2 0 0 300
262 15 2 0 0 301
263 15 2 0 0 302
264 15 2 0 0 303
265 15 2 0 0 304
266 15 2 0 0 305
267 15 2 0 0 306
268 15 2 0 0 307
269 15 2 0 0 308
270 15 2 0 0 309
271 15 2 0 0 310
272 15 2 0 0 311
273 15 2 0 0 312
274 15 2 0 0 313
275 15 2 0 0 314
276 15 2 0 0 315
277 15 2 0 0 316
278 15 2 0 0 317
279 15 2 0 0 318
280 15 2 0 0 319
281 15 2 0 0 320
282 15 2 0 0 321
283 15 2 0 0 322
284 15 2 0 0 323
285 15 2 0 0 324
286 15 2 0 0 325
287 15 2 0 0 326
288 15 2 0 0 327
289 15 2 0 0 328
290 15 2 0 0 329
291 15 2 0 0 330
292 15 2 0 0 331
293 15 2 0 0 332
294 15 2 0 0 333
295 15 2 0 0 334
296 15 2 0 0 335
297 15 2 0 0 336
298 15 2 0 0 337
299 15 2 0 0 338
300 15 2 0 0 339
301 15 2 0 0 340
302 15 2 0 0 341
303 15 2 0 0 342
304 15 2 0 0 343
305 15 2 0 0 344
306 15 2 0 0 345
307 15 2 0 0 346
308 15 2 0 0 347
309 15 2 0 0 348
310 15 2 0 0 349
311 15 2 0 0 350
312 15 2 0 0 351
313 15 2 0 0 352
314 15 2 0 0 353
315 15 2 0 0 354
316 15 2 0 0 355
317 15 2 0 0 356
318 15 2 0 0 357
319 15 2 0 0 358
320 15 2 0 0 359
321 15 2 0 0 360
322 15 2 0 0 361
323 15 2 0 0 362
324 15 2 0 0 363
325 15 2 0 0 364
326 15 2 0 0 365
327 15 2 0 0 366
328 15 2 0 0 367
329 15 2 0 0 368
330 15 2 0 0 369
331 15 2 0 0 370
332 15 2 0 0 371
333 15 2 0 0 372
334 15 2 0 0 373
335 15 2 0 0 374
336 15 2 0 0 375
337 15 2 0 0 376
338 15 2 0 0 377
339 15 2 0 0 378
340 15 2 0 0 379
341 15 2 0 0 380
342 15 2 0 0 381
343 15 2 0 0 382
344 15 2 0 0 383
345 15 2 0 0 384
346 15 2 0 0 385
347 15 2 0 0 386
348 15 2 0 0 387
349 15 2 0 0 388
350 15 2 0 0 389
351 15 2 0 0 390
352 15 2 0 0 391
353 15 2 0 0 392
354 15 2 0 0 393
355 15 2 0 0 394
356 15 2 0 0 395
357 15 2 0 0 396
358 15 2 0 0 397
359 15 2 0 0 398
360 15 2 0 0 399
361 15 2 0 0 400
362 15 2 0 0 401
363 15 2 0 0 402
364 15 2 0 0 403
365 15 2 0 0 404
366 15 2 0 0 405
367 15 2 0 0 406
368 15 2 0 0 407
369 15 2 0 0 408
370 15 2 0 0 409
371 15 2 0 0 410
372 15 2 0 0 411
373 15 2 0 0 412
374 15 2 0 0 413
375 15 2 0 0 414
376 15 2 0 0 415
377 15 2 0 0 416
378 15 2 0 0 417
379 15 2 0 0 418
380 15 2 0 0 419
381 15 2 0 0 420
382 15 2 0 0 421
383 15 2 0 0 422
384 15 2 0 0 423
385 15 2 0 0 424
386 15 2 0 0 425
387 15 2 0 0 426
388 15 2 0 0 427
389 15 2 0 0 428
390 15 2 0 0 429
391 15 2 0 0 430
392 15 2 0 0 431
393 15 2 0 0 432
394 15 2 0 0 433
395 15 2 0 0 434
396 15 2 0 0 435
397 15 2 0 0 436
398 15 2 0 0 437
399 15 2 0 0 438
400 15 2 0 0 439
401 15 2 0 0 440
402 15 2 0 0 441
403 15 2 0 0 442
404 15 2 0 0 443
405 15 2 0 0 444
406 15 2 0 0 445
407 15 2 0 0 446
408 15 2 0 0 447
409 15 2 0 0 448
410 15 2 0 0 449
411 15 2 0 0 450
412 2 3 0 1 0 99 10 1
413 2 3 0 2 0 10 12 1
414 2 3 0 3 0 12 418 1
415 2 3 0 4 0 418 104 1
416 2 3 0 5 0 11 8 2
417 2 3 0 6 0 13 11 2
418 2 3 0 7 0 5 114 3
419 2 3 0 8 0 114 82 3
420 2 3 0 9 0 8 7 4
421 2 3 0 10 0 7 6 4
422 2 3 0 11 0 5 115 114
423 2 3 0 12 0 6 115 5
424 2 3 0 13 0 7 117 6
425 2 3 0 14 0 6 117 115
426 2 3 0 15 0 7 9 118
427 2 3 0 16 0 8 9 7
428 2 3 0 17 0 7 118 117
429 2 3 0 18 0 11 9 8
430 2 3 0 19 0 118 9 103
431 2 3 0 20 0 9 10 103
432 2 3 0 21 0 11 10 9
433 2 3 0 22 0 11 12 10
434 2 3 0 23 0 103 10 99
435 2 3 0 24 0 13 12 11
436 2 3 0 25 0 12 15 418
437 2 3 0 26 0 13 15 12
438 2 3 0 27 0 14 15 13
439 2 3 0 28 0 423 15 14
440 2 3 0 29 0 423 422 15
441 2 3 0 30 0 15 422 418
442 2 3 0 31 0 33 26 16
443 2 3 0 32 0 17 18 16
444 2 3 0 33 0 50 17 16
445 2 3 0 34 0 26 50 16
446 2 3 0 35 0 18 33 16
447 2 3 0 36 0 19 380 17
448 2 3 0 37 0 381 18 17
449 2 3 0 38 0 50 19 17
450 2 3 0 39 0 380 381 17
451 2 3 0 40 0 381 393 18
452 2 3 0 41 0 393 389 18
453 2 3 0 42 0 389 31 18
454 2 3 0 43 0 31 33 18
455 2 3 0 44 0 54 281 19
456 2 3 0 45 0 281 49 19
457 2 3 0 46 0 50 54 19
458 2 3 0 47 0 49 380 19
459 2 3 0 48 0 30 34 20
460 2 3 0 49 0 21 28 20
461 2 3 0 50 0 35 21 20
462 2 3 0 51 0 34 35 20
463 2 3 0 52 0 47 30 20
464 2 3 0 53 0 28 47 20
465 2 3 0 54 0 23 32 21
466 2 3 0 55 0 25 23 21
467 2 3 0 56 0 32 28 21
468 2 3 0 57 0 35 25 21
469 2 3 0 58 0 60 24 22
470 2 3 0 59 0 36 41 22
471 2 3 0 60 0 85 79 22
472 2 3 0 61 0 41 85 22
473 2 3 0 62 0 24 36 22
474 2 3 0 63 0 79 60 22
475 2 3 0 64 0 24 29 23
476 2 3 0 65 0 36 24 23
477 2 3 0 66 0 25 36 23
478 2 3 0 67 0 29 32 23
479 2 3 0 68 0 70 29 24
480 2 3 0 69 0 70 24 60
481 2 3 0 70 0 44 43 25
482 2 3 0 71 0 35 44 25
483 2 3 0 72 0 43 36 25
484 2 3 0 73 0 42 45 26
485 2 3 0 74 0 52 50 26
486 2 3 0 75 0 45 52 26
487 2 3 0 76 0 33 42 26
488 2 3 0 77 0 27 272 271
489 2 3 0 78 0 53 51 27
490 2 3 0 79 0 53 27 271
491 2 3 0 80 0 27 277 272
492 2 3 0 81 0 51 39 27
493 2 3 0 82 0 39 277 27
494 2 3 0 83 0 32 46 28
495 2 3 0 84 0 46 47 28
496 2 3 0 85 0 40 32 29
497 2 3 0 86 0 37 40 29
498 2 3 0 87 0 70 37 29
499 2 3 0 88 0 276 30 268
500 2 3 0 89 0 276 34 30
501 2 3 0 90 0 47 48 30
502 2 3 0 91 0 30 48 268
503 2 3 0 92 0 84 38 31
504 2 3 0 93 0 389 391 31
505 2 3 0 94 0 38 33 31
506 2 3 0 95 0 31 391 66
507 2 3 0 96 0 84 31 66
508 2 3 0 97 0 40 46 32
509 2 3 0 98 0 38 42 33
510 2 3 0 99 0 39 35 34
511 2 3 0 100 0 277 34 276
512 2 3 0 101 0 39 34 277
513 2 3 0 102 0 39 44 35
514 2 3 0 103 0 43 41 36
515 2 3 0 104 0 76 37 70
516 2 3 0 105 0 146 37 76
517 2 3 0 106 0 147 37 146
518 2 3 0 107 0 147 40 37
519 2 3 0 108 0 41 42 38
520 2 3 0 109 0 41 38 85
521 2 3 0 110 0 85 38 84
522 2 3 0 111 0 51 44 39
523 2 3 0 112 0 148 46 40
524 2 3 0 113 0 148 40 147
525 2 3 0 114 0 43 42 41
526 2 3 0 115 0 43 45 42
527 2 3 0 116 0 44 45 43
528 2 3 0 117 0 51 45 44
529 2 3 0 118 0 51 52 45
530 2 3 0 119 0 149 47 46
531 2 3 0 120 0 149 46 148
532 2 3 0 121 0 151 48 47
533 2 3 0 122 0 151 47 149
534 2 3 0 123 0 48 177 171
535 2 3 0 124 0 151 177 48
536 2 3 0 125 0 48 171 268
537 2 3 0 126 0 49 283 347
538 2 3 0 127 0 49 347 385
539 2 3 0 128 0 49 385 380
540 2 3 0 129 0 281 283 49
541 2 3 0 130 0 52 54 50
542 2 3 0 131 0 53 52 51
543 2 3 0 132 0 53 54 52
544 2 3 0 133 0 280 53 271
545 2 3 0 134 0 280 54 53
546 2 3 0 135 0 280 281 54
547 2 3 0 136 0 100 62 55
548 2 3 0 137 0 64 71 55
549 2 3 0 138 0 71 100 55
550 2 3 0 139 0 69 64 56
551 2 3 0 140 0 59 69 56
552 2 3 0 141 0 73 67 56
553 2 3 0 142 0 67 59 56
554 2 3 0 143 0 65 66 57
555 2 3 0 144 0 72 65 57
556 2 3 0 145 0 66 68 57
557 2 3 0 146 0 78 73 58
558 2 3 0 147 0 61 60 58
559 2 3 0 148 0 79 78 58
560 2 3 0 149 0 60 79 58
561 2 3 0 150 0 67 63 59
562 2 3 0 151 0 61 70 60
563 2 3 0 152 0 62 76 61
564 2 3 0 153 0 76 70 61
565 2 3 0 154 0 93 76 62
566 2 3 0 155 0 100 93 62
567 2 3 0 156 0 75 74 63
568 2 3 0 157 0 67 75 63
569 2 3 0 158 0 69 81 64
570 2 3 0 159 0 81 71 64
571 2 3 0 160 0 83 84 65
572 2 3 0 161 0 72 77 65
573 2 3 0 162 0 77 83 65
574 2 3 0 163 0 84 66 65
575 2 3 0 164 0 391 68 66
576 2 3 0 165 0 73 75 67
577 2 3 0 166 0 391 404 68
578 2 3 0 167 0 80 81 69
579 2 3 0 168 0 81 112 71
580 2 3 0 169 0 71 101 100
581 2 3 0 170 0 71 112 101
582 2 3 0 171 0 74 77 72
583 2 3 0 172 0 78 75 73
584 2 3 0 173 0 75 77 74
585 2 3 0 174 0 78 77 75
586 2 3 0 175 0 146 76 93
587 2 3 0 176 0 78 83 77
588 2 3 0 177 0 79 83 78
589 2 3 0 178 0 85 83 79
590 2 3 0 179 0 82 81 80
591 2 3 0 180 0 82 112 81
592 2 3 0 181 0 114 112 82
593 2 3 0 182 0 85 84 83
594 2 3 0 183 0 89 110 86
595 2 3 0 184 0 103 87 86
596 2 3 0 185 0 110 118 86
597 2 3 0 186 0 95 89 86
598 2 3 0 187 0 87 95 86
599 2 3 0 188 0 118 103 86
600 2 3 0 189 0 102 95 87
601 2 3 0 190 0 103 99 87
602 2 3 0 191 0 101 113 88
603 2 3 0 192 0 97 101 88
604 2 3 0 193 0 91 92 88
605 2 3 0 194 0 92 97 88
606 2 3 0 195 0 113 91 88
607 2 3 0 196 0 107 96 89
608 2 3 0 197 0 92 110 89
609 2 3 0 198 0 95 107 89
610 2 3 0 199 0 96 92 89
611 2 3 0 200 0 94 116 90
612 2 3 0 201 0 116 120 90
613 2 3 0 202 0 120 425 90
614 2 3 0 203 0 135 94 90
615 2 3 0 204 0 110 92 91
616 2 3 0 205 0 117 110 91
617 2 3 0 206 0 113 115 91
618 2 3 0 207 0 115 117 91
619 2 3 0 208 0 96 97 92
620 2 3 0 209 0 111 146 93
621 2 3 0 210 0 98 111 93
622 2 3 0 211 0 100 98 93
623 2 3 0 212 0 142 94 123
624 2 3 0 213 0 108 116 94
625 2 3 0 214 0 142 108 94
626 2 3 0 215 0 94 135 123
627 2 3 0 216 0 102 109 95
628 2 3 0 217 0 109 107 95
629 2 3 0 218 0 106 97 96
630 2 3 0 219 0 98 101 97
631 2 3 0 220 0 106 98 97
632 2 3 0 221 0 100 101 98
633 2 3 0 222 0 106 111 98
634 2 3 0 223 0 112 113 101
635 2 3 0 224 0 105 119 102
636 2 3 0 225 0 119 109 102
637 2 3 0 226 0 420 421 104
638 2 3 0 227 0 420 104 418
639 2 3 0 228 0 121 119 105
640 2 3 0 229 0 121 105 417
641 2 3 0 230 0 144 111 106
642 2 3 0 231 0 109 108 107
643 2 3 0 232 0 109 116 108
644 2 3 0 233 0 119 116 109
645 2 3 0 234 0 117 118 110
646 2 3 0 235 0 145 146 111
647 2 3 0 236 0 145 111 144
648 2 3 0 237 0 114 113 112
649 2 3 0 238 0 114 115 113
650 2 3 0 239 0 119 120 116
651 2 3 0 240 0 121 120 119
652 2 3 0 241 0 430 425 120
653 2 3 0 242 0 121 430 120
654 2 3 0 243 0 426 430 121
655 2 3 0 244 0 426 121 417
656 2 3 0 245 0 142 123 122
657 2 3 0 246 0 123 125 122
658 2 3 0 247 0 136 138 122
659 2 3 0 248 0 125 136 122
660 2 3 0 249 0 138 142 122
661 2 3 0 250 0 133 125 123
662 2 3 0 251 0 135 124 123
663 2 3 0 252 0 124 133 123
664 2 3 0 253 0 141 155 124
665 2 3 0 254 0 135 141 124
666 2 3 0 255 0 155 133 124
667 2 3 0 256 0 126 136 125
668 2 3 0 257 0 139 126 125
669 2 3 0 258 0 133 139 125
670 2 3 0 259 0 134 136 126
671 2 3 0 260 0 127 134 126
672 2 3 0 261 0 129 127 126
673 2 3 0 262 0 139 129 126
674 2 3 0 263 0 129 150 127
675 2 3 0 264 0 150 130 127
676 2 3 0 265 0 143 134 127
677 2 3 0 266 0 130 143 127
678 2 3 0 267 0 154 140 128
679 2 3 0 268 0 140 155 128
680 2 3 0 269 0 158 159 128
681 2 3 0 270 0 159 157 128
682 2 3 0 271 0 155 158 128
683 2 3 0 272 0 157 154 128
684 2 3 0 273 0 139 153 129
685 2 3 0 274 0 153 132 129
686 2 3 0 275 0 132 150 129
687 2 3 0 276 0 150 152 130
688 2 3 0 277 0 149 143 130
689 2 3 0 278 0 152 151 130
690 2 3 0 279 0 151 149 130
691 2 3 0 280 0 147 145 131
692 2 3 0 281 0 143 148 131
693 2 3 0 282 0 145 137 131
694 2 3 0 283 0 134 143 131
695 2 3 0 284 0 148 147 131
696 2 3 0 285 0 137 134 131
697 2 3 0 286 0 186 183 132
698 2 3 0 287 0 183 150 132
699 2 3 0 288 0 188 186 132
700 2 3 0 289 0 153 188 132
701 2 3 0 290 0 155 140 133
702 2 3 0 291 0 140 139 133
703 2 3 0 292 0 137 136 134
704 2 3 0 293 0 137 138 136
705 2 3 0 294 0 145 144 137
706 2 3 0 295 0 144 138 137
707 2 3 0 296 0 140 153 139
708 2 3 0 297 0 154 153 140
709 2 3 0 298 0 156 155 141
710 2 3 0 299 0 156 141 415
711 2 3 0 300 0 149 148 143
712 2 3 0 301 0 147 146 145
713 2 3 0 302 0 183 152 150
714 2 3 0 303 0 152 177 151
715 2 3 0 304 0 183 178 152
716 2 3 0 305 0 152 178 177
717 2 3 0 306 0 154 188 153
718 2 3 0 307 0 157 189 154
719 2 3 0 308 0 154 189 188
720 2 3 0 309 0 156 158 155
721 2 3 0 310 0 437 156 415
722 2 3 0 311 0 437 438 156
723 2 3 0 312 0 438 158 156
724 2 3 0 313 0 157 190 189
725 2 3 0 314 0 191 190 157
726 2 3 0 315 0 159 191 157
727 2 3 0 316 0 438 159 158
728 2 3 0 317 0 182 165 160
729 2 3 0 318 0 181 162 160
730 2 3 0 319 0 165 181 160
731 2 3 0 320 0 168 163 161
732 2 3 0 321 0 163 164 161
733 2 3 0 322 0 164 175 161
734 2 3 0 323 0 169 168 161
735 2 3 0 324 0 175 169 161
736 2 3 0 325 0 208 205 162
737 2 3 0 326 0 181 208 162
738 2 3 0 327 0 205 172 162
739 2 3 0 328 0 200 166 163
740 2 3 0 329 0 176 164 163
741 2 3 0 330 0 168 200 163
742 2 3 0 331 0 166 176 163
743 2 3 0 332 0 176 174 164
744 2 3 0 333 0 167 175 164
745 2 3 0 334 0 174 167 164
746 2 3 0 335 0 173 181 165
747 2 3 0 336 0 182 170 165
748 2 3 0 337 0 203 180 166
749 2 3 0 338 0 180 176 166
750 2 3 0 339 0 203 166 196
751 2 3 0 340 0 166 200 196
752 2 3 0 341 0 171 177 167
753 2 3 0 342 0 178 175 167
754 2 3 0 343 0 174 171 167
755 2 3 0 344 0 177 178 167
756 2 3 0 345 0 172 200 168
757 2 3 0 346 0 184 185 169
758 2 3 0 347 0 175 184 169
759 2 3 0 348 0 187 189 170
760 2 3 0 349 0 189 190 170
761 2 3 0 350 0 182 187 170
762 2 3 0 351 0 171 278 268
763 2 3 0 352 0 174 278 171
764 2 3 0 353 0 205 201 172
765 2 3 0 354 0 172 201 200
766 2 3 0 355 0 217 215 173
767 2 3 0 356 0 194 217 173
768 2 3 0 357 0 215 181 173
769 2 3 0 358 0 174 179 278
770 2 3 0 359 0 176 179 174
771 2 3 0 360 0 178 184 175
772 2 3 0 361 0 180 179 176
773 2 3 0 362 0 183 184 178
774 2 3 0 363 0 180 292 179
775 2 3 0 364 0 179 292 265
776 2 3 0 365 0 278 179 265
777 2 3 0 366 0 291 292 180
778 2 3 0 367 0 291 180 203
779 2 3 0 368 0 215 208 181
780 2 3 0 369 0 185 187 182
781 2 3 0 370 0 186 184 183
782 2 3 0 371 0 186 185 184
783 2 3 0 372 0 186 187 185
784 2 3 0 373 0 188 187 186
785 2 3 0 374 0 188 189 187
786 2 3 0 375 0 191 192 190
787 2 3 0 376 0 201 202 195
788 2 3 0 377 0 204 197 196
789 2 3 0 378 0 197 203 196
790 2 3 0 379 0 203 197 229
791 2 3 0 380 0 206 232 197
792 2 3 0 381 0 204 206 197
793 2 3 0 382 0 197 232 229
794 2 3 0 383 0 209 204 198
795 2 3 0 384 0 212 216 198
796 2 3 0 385 0 216 209 198
797 2 3 0 386 0 213 210 199
798 2 3 0 387 0 210 223 199
799 2 3 0 388 0 205 202 201
800 2 3 0 389 0 291 203 229
801 2 3 0 390 0 209 206 204
802 2 3 0 391 0 209 207 206
803 2 3 0 392 0 206 207 234
804 2 3 0 393 0 206 234 232
805 2 3 0 394 0 252 255 207
806 2 3 0 395 0 211 252 207
807 2 3 0 396 0 209 211 207
808 2 3 0 397 0 207 255 234
809 2 3 0 398 0 215 214 208
810 2 3 0 399 0 216 211 209
811 2 3 0 400 0 222 223 210
812 2 3 0 401 0 221 222 210
813 2 3 0 402 0 220 221 210
814 2 3 0 403 0 213 220 210
815 2 3 0 404 0 211 227 252
816 2 3 0 405 0 226 227 211
817 2 3 0 406 0 216 226 211
818 2 3 0 407 0 225 216 212
819 2 3 0 408 0 224 225 212
820 2 3 0 409 0 214 219 213
821 2 3 0 410 0 219 220 213
822 2 3 0 411 0 218 219 214
823 2 3 0 412 0 215 218 214
824 2 3 0 413 0 217 218 215
825 2 3 0 414 0 225 226 216
826 2 3 0 415 0 227 258 252
827 2 3 0 416 0 253 256 228
828 2 3 0 417 0 244 253 228
829 2 3 0 418 0 256 230 228
830 2 3 0 419 0 231 233 228
831 2 3 0 420 0 230 241 228
832 2 3 0 421 0 241 231 228
833 2 3 0 422 0 233 244 228
834 2 3 0 423 0 242 291 229
835 2 3 0 424 0 232 242 229
836 2 3 0 425 0 248 241 230
837 2 3 0 426 0 254 251 230
838 2 3 0 427 0 251 248 230
839 2 3 0 428 0 256 254 230
840 2 3 0 429 0 241 246 231
841 2 3 0 430 0 238 242 231
842 2 3 0 431 0 246 238 231
843 2 3 0 432 0 242 233 231
844 2 3 0 433 0 234 233 232
845 2 3 0 434 0 233 242 232
846 2 3 0 435 0 234 244 233
847 2 3 0 436 0 255 244 234
848 2 3 0 437 0 287 290 235
849 2 3 0 438 0 245 236 235
850 2 3 0 439 0 279 287 235
851 2 3 0 440 0 236 279 235
852 2 3 0 441 0 290 237 235
853 2 3 0 442 0 237 245 235
854 2 3 0 443 0 245 243 236
855 2 3 0 444 0 279 236 309
856 2 3 0 445 0 249 245 237
857 2 3 0 446 0 300 247 237
858 2 3 0 447 0 247 249 237
859 2 3 0 448 0 290 300 237
860 2 3 0 449 0 297 293 238
861 2 3 0 450 0 293 242 238
862 2 3 0 451 0 246 301 238
863 2 3 0 452 0 301 297 238
864 2 3 0 453 0 331 328 239
865 2 3 0 454 0 328 240 239
866 2 3 0 455 0 264 331 239
867 2 3 0 456 0 328 323 240
868 2 3 0 457 0 248 246 241
869 2 3 0 458 0 293 291 242
870 2 3 0 459 0 245 250 243
871 2 3 0 460 0 255 253 244
872 2 3 0 461 0 249 250 245
873 2 3 0 462 0 246 247 301
874 2 3 0 463 0 248 247 246
875 2 3 0 464 0 248 249 247
876 2 3 0 465 0 301 247 300
877 2 3 0 466 0 251 249 248
878 2 3 0 467 0 251 250 249
879 2 3 0 468 0 251 257 250
880 2 3 0 469 0 254 257 251
881 2 3 0 470 0 258 255 252
882 2 3 0 471 0 260 256 253
883 2 3 0 472 0 255 259 253
884 2 3 0 473 0 259 260 253
885 2 3 0 474 0 262 257 254
886 2 3 0 475 0 256 261 254
887 2 3 0 476 0 261 262 254
888 2 3 0 477 0 258 259 255
889 2 3 0 478 0 260 261 256
890 2 3 0 479 0 262 263 257
891 2 3 0 480 0 295 294 265
892 2 3 0 481 0 294 266 265
893 2 3 0 482 0 292 295 265
894 2 3 0 483 0 266 278 265
895 2 3 0 484 0 267 276 266
896 2 3 0 485 0 294 267 266
897 2 3 0 486 0 276 268 266
898 2 3 0 487 0 268 278 266
899 2 3 0 488 0 294 269 267
900 2 3 0 489 0 277 276 267
901 2 3 0 490 0 269 272 267
902 2 3 0 491 0 272 277 267
903 2 3 0 492 0 275 270 269
904 2 3 0 493 0 296 275 269
905 2 3 0 494 0 270 272 269
906 2 3 0 495 0 294 296 269
907 2 3 0 496 0 288 273 270
908 2 3 0 497 0 273 271 270
909 2 3 0 498 0 275 288 270
910 2 3 0 499 0 271 272 270
911 2 3 0 500 0 273 280 271
912 2 3 0 501 0 288 274 273
913 2 3 0 502 0 282 280 273
914 2 3 0 503 0 274 282 273
915 2 3 0 504 0 289 286 274
916 2 3 0 505 0 286 284 274
917 2 3 0 506 0 288 289 274
918 2 3 0 507 0 284 282 274
919 2 3 0 508 0 299 298 275
920 2 3 0 509 0 298 288 275
921 2 3 0 510 0 296 299 275
922 2 3 0 511 0 285 279 345
923 2 3 0 512 0 279 309 345
924 2 3 0 513 0 285 287 279
925 2 3 0 514 0 282 281 280
926 2 3 0 515 0 282 283 281
927 2 3 0 516 0 284 283 282
928 2 3 0 517 0 284 373 283
929 2 3 0 518 0 283 373 347
930 2 3 0 519 0 286 374 284
931 2 3 0 520 0 284 374 373
932 2 3 0 521 0 286 285 374
933 2 3 0 522 0 285 345 341
934 2 3 0 523 0 374 285 341
935 2 3 0 524 0 286 287 285
936 2 3 0 525 0 289 287 286
937 2 3 0 526 0 289 290 287
938 2 3 0 527 0 298 289 288
939 2 3 0 528 0 298 290 289
940 2 3 0 529 0 298 300 290
941 2 3 0 530 0 293 292 291
942 2 3 0 531 0 293 295 292
943 2 3 0 532 0 297 295 293
944 2 3 0 533 0 295 296 294
945 2 3 0 534 0 297 296 295
946 2 3 0 535 0 297 299 296
947 2 3 0 536 0 301 299 297
948 2 3 0 537 0 299 300 298
949 2 3 0 538 0 301 300 299
950 2 3 0 539 0 356 311 302
951 2 3 0 540 0 358 356 302
952 2 3 0 541 0 311 303 302
953 2 3 0 542 0 303 318 302
954 2 3 0 543 0 318 358 302
955 2 3 0 544 0 319 315 303
956 2 3 0 545 0 311 320 303
957 2 3 0 546 0 320 319 303
958 2 3 0 547 0 315 318 303
959 2 3 0 548 0 340 314 304
960 2 3 0 549 0 314 306 304
961 2 3 0 550 0 340 304 338
962 2 3 0 551 0 312 322 305
963 2 3 0 552 0 306 307 305
964 2 3 0 553 0 307 312 305
965 2 3 0 554 0 314 307 306
966 2 3 0 555 0 314 315 307
967 2 3 0 556 0 315 312 307
968 2 3 0 557 0 310 356 308
969 2 3 0 558 0 350 345 308
970 2 3 0 559 0 356 350 308
971 2 3 0 560 0 345 309 308
972 2 3 0 561 0 309 310 308
973 2 3 0 562 0 316 311 310
974 2 3 0 563 0 311 356 310
975 2 3 0 564 0 316 320 311
976 2 3 0 565 0 315 319 312
977 2 3 0 566 0 313 322 312
978 2 3 0 567 0 319 313 312
979 2 3 0 568 0 326 329 313
980 2 3 0 569 0 324 326 313
981 2 3 0 570 0 329 322 313
982 2 3 0 571 0 319 324 313
983 2 3 0 572 0 317 315 314
984 2 3 0 573 0 317 314 340
985 2 3 0 574 0 317 318 315
986 2 3 0 575 0 321 320 316
987 2 3 0 576 0 323 321 316
988 2 3 0 577 0 357 317 343
989 2 3 0 578 0 343 317 340
990 2 3 0 579 0 357 318 317
991 2 3 0 580 0 357 358 318
992 2 3 0 581 0 320 324 319
993 2 3 0 582 0 321 324 320
994 2 3 0 583 0 327 330 321
995 2 3 0 584 0 323 327 321
996 2 3 0 585 0 330 324 321
997 2 3 0 586 0 329 325 322
998 2 3 0 587 0 328 327 323
999 2 3 0 588 0 330 326 324
1000 2 3 0 589 0 329 336 325
1001 2 3 0 590 0 334 335 326
1002 2 3 0 591 0 335 329 326
1003 2 3 0 592 0 330 334 326
1004 2 3 0 593 0 328 332 327
1005 2 3 0 594 0 333 330 327
1006 2 3 0 595 0 332 333 327
1007 2 3 0 596 0 331 332 328
1008 2 3 0 597 0 335 336 329
1009 2 3 0 598 0 333 334 330
1010 2 3 0 599 0 342 353 337
1011 2 3 0 600 0 377 375 337
1012 2 3 0 601 0 351 377 337
1013 2 3 0 602 0 375 348 337
1014 2 3 0 603 0 348 342 337
1015 2 3 0 604 0 353 351 337
1016 2 3 0 605 0 349 340 338
1017 2 3 0 606 0 378 349 338
1018 2 3 0 607 0 386 366 339
1019 2 3 0 608 0 355 386 339
1020 2 3 0 609 0 369 368 339
1021 2 3 0 610 0 363 355 339
1022 2 3 0 611 0 366 369 339
1023 2 3 0 612 0 368 363 339
1024 2 3 0 613 0 349 343 340
1025 2 3 0 614 0 372 374 341
1026 2 3 0 615 0 350 344 341
1027 2 3 0 616 0 345 350 341
1028 2 3 0 617 0 344 372 341
1029 2 3 0 618 0 342 348 405
1030 2 3 0 619 0 360 353 342
1031 2 3 0 620 0 354 360 342
1032 2 3 0 621 0 354 342 405
1033 2 3 0 622 0 349 352 343
1034 2 3 0 623 0 346 357 343
1035 2 3 0 624 0 352 346 343
1036 2 3 0 625 0 370 372 344
1037 2 3 0 626 0 359 365 344
1038 2 3 0 627 0 365 370 344
1039 2 3 0 628 0 350 359 344
1040 2 3 0 629 0 361 357 346
1041 2 3 0 630 0 362 364 346
1042 2 3 0 631 0 364 361 346
1043 2 3 0 632 0 352 362 346
1044 2 3 0 633 0 371 367 347
1045 2 3 0 634 0 373 371 347
1046 2 3 0 635 0 347 367 385
1047 2 3 0 636 0 348 406 405
1048 2 3 0 637 0 408 348 375
1049 2 3 0 638 0 408 406 348
1050 2 3 0 639 0 351 349 378
1051 2 3 0 640 0 351 352 349
1052 2 3 0 641 0 356 359 350
1053 2 3 0 642 0 351 378 377
1054 2 3 0 643 0 353 352 351
1055 2 3 0 644 0 353 362 352
1056 2 3 0 645 0 360 362 353
1057 2 3 0 646 0 390 354 405
1058 2 3 0 647 0 355 354 390
1059 2 3 0 648 0 355 360 354
1060 2 3 0 649 0 355 390 386
1061 2 3 0 650 0 363 360 355
1062 2 3 0 651 0 358 359 356
1063 2 3 0 652 0 361 358 357
1064 2 3 0 653 0 361 359 358
1065 2 3 0 654 0 361 365 359
1066 2 3 0 655 0 363 362 360
1067 2 3 0 656 0 364 365 361
1068 2 3 0 657 0 363 364 362
1069 2 3 0 658 0 368 364 363
1070 2 3 0 659 0 368 365 364
1071 2 3 0 660 0 368 370 365
1072 2 3 0 661 0 367 366 403
1073 2 3 0 662 0 402 366 386
1074 2 3 0 663 0 403 366 402
1075 2 3 0 664 0 367 369 366
1076 2 3 0 665 0 367 403 385
1077 2 3 0 666 0 371 369 367
1078 2 3 0 667 0 369 370 368
1079 2 3 0 668 0 371 370 369
1080 2 3 0 669 0 371 372 370
1081 2 3 0 670 0 373 372 371
1082 2 3 0 671 0 373 374 372
1083 2 3 0 672 0 376 379 375
1084 2 3 0 673 0 377 376 375
1085 2 3 0 674 0 379 408 375
1086 2 3 0 675 0 409 408 379
1087 2 3 0 676 0 385 394 380
1088 2 3 0 677 0 394 381 380
1089 2 3 0 678 0 394 393 381
1090 2 3 0 679 0 388 397 382
1091 2 3 0 680 0 397 398 382
1092 2 3 0 681 0 389 393 382
1093 2 3 0 682 0 398 389 382
1094 2 3 0 683 0 393 388 382
1095 2 3 0 684 0 386 390 383
1096 2 3 0 685 0 395 402 383
1097 2 3 0 686 0 387 395 383
1098 2 3 0 687 0 402 386 383
1099 2 3 0 688 0 390 387 383
1100 2 3 0 689 0 401 392 384
1101 2 3 0 690 0 397 388 384
1102 2 3 0 691 0 387 401 384
1103 2 3 0 692 0 392 397 384
1104 2 3 0 693 0 395 387 384
1105 2 3 0 694 0 388 395 384
1106 2 3 0 695 0 403 394 385
1107 2 3 0 696 0 390 400 387
1108 2 3 0 697 0 400 401 387
1109 2 3 0 698 0 393 396 388
1110 2 3 0 699 0 396 395 388
1111 2 3 0 700 0 398 391 389
1112 2 3 0 701 0 400 390 405
1113 2 3 0 702 0 398 404 391
1114 2 3 0 703 0 401 414 392
1115 2 3 0 704 0 399 397 392
1116 2 3 0 705 0 394 396 393
1117 2 3 0 706 0 403 396 394
1118 2 3 0 707 0 396 402 395
1119 2 3 0 708 0 403 402 396
1120 2 3 0 709 0 399 398 397
1121 2 3 0 710 0 399 404 398
1122 2 3 0 711 0 406 400 405
1123 2 3 0 712 0 412 401 400
1124 2 3 0 713 0 412 400 406
1125 2 3 0 714 0 412 414 401
1126 2 3 0 715 0 411 412 406
1127 2 3 0 716 0 408 411 406
1128 2 3 0 717 0 413 410 407
1129 2 3 0 718 0 409 411 408
1130 2 3 0 719 0 410 411 409
1131 2 3 0 720 0 413 411 410
1132 2 3 0 721 0 413 412 411
1133 2 3 0 722 0 413 414 412
1134 2 3 0 723 0 436 437 415
1135 2 3 0 724 0 418 422 416
1136 2 3 0 725 0 420 418 416
1137 2 3 0 726 0 419 420 416
1138 2 3 0 727 0 424 426 417
1139 2 3 0 728 0 421 424 417
1140 2 3 0 729 0 428 420 419
1141 2 3 0 730 0 428 421 420
1142 2 3 0 731 0 428 424 421
1143 2 3 0 732 0 423 429 422
1144 2 3 0 733 0 427 429 423
1145 2 3 0 734 0 432 426 424
1146 2 3 0 735 0 431 432 424
1147 2 3 0 736 0 428 431 424
1148 2 3 0 737 0 434 435 425
1149 2 3 0 738 0 430 434 425
1150 2 3 0 739 0 433 430 426
1151 2 3 0 740 0 432 433 426
1152 2 3 0 741 0 433 434 430
1153 2 3 0 742 0 323 316 439
1154 2 3 0 743 0 316 310 439
1155 2 3 0 744 0 309 236 439
1156 2 3 0 745 0 236 243 439
1157 2 3 0 746 0 310 309 439
1158 2 3 0 747 0 240 323 439
1159 2 3 0 748 0 243 240 439
1160 2 3 0 749 0 106 96 440
1161 2 3 0 750 0 144 106 440
1162 2 3 0 751 0 440 108 142
1163 2 3 0 752 0 440 142 138
1164 2 3 0 753 0 107 440 96
1165 2 3 0 754 0 138 144 440
1166 2 3 0 755 0 107 108 440
1167 2 3 0 756 0 202 441 195
1168 2 3 0 757 0 441 212 198
1169 2 3 0 758 0 441 198 195
1170 2 3 0 759 0 202 199 441
1171 2 3 0 760 0 223 224 441
1172 2 3 0 761 0 441 224 212
1173 2 3 0 762 0 223 441 199
1174 2 3 0 763 0 104 421 446
1175 2 3 0 764 0 421 417 446
1176 2 3 0 765 0 448 105 102
1177 2 3 0 766 0 141 442 415
1178 2 3 0 767 0 435 436 442
1179 2 3 0 768 0 442 135 90
1180 2 3 0 769 0 442 436 415
1181 2 3 0 770 0 425 442 90
1182 2 3 0 771 0 435 442 425
1183 2 3 0 772 0 442 141 135
1184 2 3 0 773 0 56 64 443
1185 2 3 0 774 0 73 56 443
1186 2 3 0 775 0 443 61 58
1187 2 3 0 776 0 62 443 55
1188 2 3 0 777 0 58 73 443
1189 2 3 0 778 0 62 61 443
1190 2 3 0 779 0 443 64 55
1191 2 3 0 780 0 444 182 160
1192 2 3 0 781 0 162 444 160
1193 2 3 0 782 0 172 444 162
1194 2 3 0 783 0 168 169 444
1195 2 3 0 784 0 185 444 169
1196 2 3 0 785 0 185 182 444
1197 2 3 0 786 0 172 168 444
1198 2 3 0 787 0 170 190 445
1199 2 3 0 788 0 193 194 445
1200 2 3 0 789 0 445 194 173
1201 2 3 0 790 0 445 173 165
1202 2 3 0 791 0 165 170 445
1203 2 3 0 792 0 192 193 445
1204 2 3 0 793 0 190 192 445
1205 2 3 0 794 0 446 105 448
1206 2 3 0 795 0 446 448 99
1207 2 3 0 796 0 446 99 1
1208 2 3 0 797 0 417 105 446
1209 2 3 0 798 0 240 447 239
1210 2 3 0 799 0 263 264 447
1211 2 3 0 800 0 257 263 447
1212 2 3 0 801 0 447 264 239
1213 2 3 0 802 0 240 243 447
1214 2 3 0 803 0 250 257 447
1215 2 3 0 804 0 243 250 447
1216 2 3 0 805 0 448 102 87
1217 2 3 0 806 0 448 87 99
1218 2 3 0 807 0 202 449 199
1219 2 3 0 808 0 205 449 202
1220 2 3 0 809 0 208 449 205
1221 2 3 0 810 0 214 213 449
1222 2 3 0 811 0 213 199 449
1223 2 3 0 812 0 208 214 449
1224 2 3 0 813 0 195 198 450
1225 2 3 0 814 0 198 204 450
1226 2 3 0 815 0 196 200 450
1227 2 3 0 816 0 200 201 450
1228 2 3 0 817 0 450 201 195
1229 2 3 0 818 0 204 196 450
1230 2 3 0 819 0 446 1 104
$EndElements
